# xmcd
# 
# Track frame offsets:
#     150
#     19792
#     40542
#     60820
#     81155
#     100732
#     121717
#     143582
#     171312
#     191825
#     212487
#     234382
#     253607
#     277987
#     300050
#     318015
# 
# Disc length: 4534
# 
# Revision: 0
# Processed by: cddbd v1.5.2PL0 Copyright (c) Steve Scherf et al.
# Submitted via: fre:ac v1.0.17
# 
DISCID=ba11b410
DTITLE=島津亜矢 - 島津亜矢 2004年全曲集
DYEAR=2003
DGENRE=Blues
TTITLE0=海で一生終わりたかった
TTITLE1=北海恋唄
TTITLE2=夜桜挽花
TTITLE3=波
TTITLE4=憂き世春秋
TTITLE5=海鳴りの詩
TTITLE6=北海峡
TTITLE7=近松門左衛門原作「曽根崎心中」より お初
TTITLE8=演歌桜
TTITLE9=相生～ふたりの絆はほどけない～
TTITLE10=道南夫婦船
TTITLE11=愛染かつらをもう一度
TTITLE12=感謝状～母へのメッセージ～
TTITLE13=母ごころ宅配便
TTITLE14=出世坂
TTITLE15=瞼の母
EXTD=
EXTT0=
EXTT1=
EXTT2=
EXTT3=
EXTT4=
EXTT5=
EXTT6=
EXTT7=
EXTT8=
EXTT9=
EXTT10=
EXTT11=
EXTT12=
EXTT13=
EXTT14=
EXTT15=
PLAYORDER=
